<?xml version="1.0" standalone="no"?>
<!DOCTYPE svg PUBLIC "-//W3C//DTD SVG 20010904//EN"
 "http://www.w3.org/TR/2001/REC-SVG-20010904/DTD/svg10.dtd">
<svg version="1.0" xmlns="http://www.w3.org/2000/svg"
 width="1024.000000pt" height="1024.000000pt" viewBox="0 0 1024.000000 1024.000000"
 preserveAspectRatio="xMidYMid meet">
<metadata>
Created by potrace 1.11, written by Peter Selinger 2001-2013
</metadata>
<g transform="translate(0.000000,1024.000000) scale(0.100000,-0.100000)"
fill="#000000" stroke="none">
<path d="M1557 8682 l-1477 -1477 0 -2085 0 -2085 1478 -1478 1477 -1477 2085
0 2085 0 1478 1478 1477 1477 0 2085 0 2085 -1478 1478 -1477 1477 -2085 0
-2085 0 -1478 -1478z m2443 -370 l0 -448 -202 -12 c-408 -25 -512 -71 -575
-255 -29 -83 -34 -151 -43 -542 -24 -1064 -108 -1382 -453 -1711 -51 -49 -137
-119 -190 -154 -53 -36 -96 -68 -97 -71 0 -4 28 -23 63 -43 239 -140 437 -373
526 -618 67 -185 109 -453 136 -868 4 -52 10 -257 15 -455 6 -279 12 -373 24
-420 46 -171 121 -245 292 -290 75 -20 311 -45 420 -45 l84 0 0 -450 0 -450
-228 0 c-628 0 -1019 100 -1272 325 -175 155 -258 332 -305 651 -26 174 -35
340 -45 762 -16 695 -42 883 -152 1087 -112 207 -301 314 -617 349 l-106 12
-3 451 -2 452 57 5 c471 48 682 223 768 635 29 140 46 388 55 826 18 811 56
1025 225 1250 135 180 353 325 580 388 210 59 443 83 813 86 l232 1 0 -448z
m2955 424 c169 -22 272 -42 378 -77 207 -68 407 -208 530 -372 100 -133 141
-238 176 -448 32 -196 41 -329 51 -802 12 -570 32 -784 91 -967 66 -204 198
-349 379 -419 77 -30 238 -65 353 -77 l57 -5 -2 -452 -3 -451 -106 -12 c-316
-35 -505 -142 -617 -349 -110 -204 -136 -392 -152 -1087 -12 -521 -27 -703
-75 -919 -60 -271 -177 -444 -398 -586 -244 -158 -613 -233 -1149 -233 l-228
0 0 450 0 450 88 0 c112 0 340 25 416 45 171 45 246 119 292 290 12 47 18 141
24 420 17 704 58 1066 151 1323 89 245 287 478 527 618 34 20 62 39 62 43 -1
3 -44 35 -97 71 -53 35 -139 104 -190 153 -345 330 -429 648 -453 1712 -9 391
-14 459 -43 542 -63 184 -167 230 -574 255 l-203 12 0 449 0 450 298 -6 c165
-4 350 -13 417 -21z"/>
</g>
</svg>
