<?xml version="1.0" standalone="no"?>
<!DOCTYPE svg PUBLIC "-//W3C//DTD SVG 20010904//EN"
 "http://www.w3.org/TR/2001/REC-SVG-20010904/DTD/svg10.dtd">
<svg version="1.0" xmlns="http://www.w3.org/2000/svg"
 width="1024.000000pt" height="1024.000000pt" viewBox="0 0 1024.000000 1024.000000"
 preserveAspectRatio="xMidYMid meet">
<metadata>
Created by potrace 1.11, written by Peter Selinger 2001-2013
</metadata>
<g transform="translate(0.000000,1024.000000) scale(0.100000,-0.100000)"
fill="#000000" stroke="none">
<path d="M4885 9193 c-1210 -73 -2315 -671 -3043 -1648 -783 -1050 -1007
-2427 -600 -3685 284 -878 868 -1641 1649 -2153 1134 -744 2580 -870 3832
-335 990 422 1789 1241 2185 2238 349 879 383 1855 96 2753 -397 1240 -1367
2219 -2609 2632 -465 155 -1022 228 -1510 198z m-1025 -1362 l0 -189 -222 -4
c-171 -4 -233 -9 -265 -21 -91 -34 -143 -95 -176 -204 -20 -65 -21 -100 -27
-848 -6 -666 -9 -790 -23 -846 -73 -300 -251 -507 -496 -575 -34 -10 -61 -20
-61 -24 0 -4 28 -15 62 -24 238 -66 413 -264 491 -556 19 -71 21 -117 27 -845
4 -423 10 -781 14 -795 4 -14 12 -45 18 -70 23 -95 76 -162 153 -197 33 -15
78 -19 275 -23 l235 -5 0 -195 0 -195 -265 0 c-306 0 -366 9 -502 77 -159 80
-273 233 -330 443 -21 78 -22 100 -28 850 -6 749 -7 772 -28 854 -45 171 -143
311 -281 400 -71 46 -172 81 -232 81 l-39 0 0 200 0 200 39 0 c55 0 157 34
216 71 157 99 246 222 297 407 21 74 22 103 28 842 8 830 7 819 66 966 43 107
74 156 153 234 87 86 163 129 287 159 68 17 117 20 347 20 l267 1 0 -189z
m3129 169 c127 -31 204 -73 292 -160 78 -78 110 -127 153 -234 59 -147 58
-136 65 -966 7 -744 8 -767 29 -843 47 -169 136 -298 267 -385 80 -54 181 -92
246 -92 l39 0 0 -200 0 -200 -39 0 c-55 0 -157 -34 -216 -71 -157 -100 -248
-226 -296 -410 -22 -82 -23 -103 -29 -854 -6 -750 -7 -772 -28 -850 -57 -210
-171 -363 -330 -443 -136 -68 -196 -77 -502 -77 l-265 0 0 195 0 195 235 5
c197 4 242 8 275 23 77 35 130 102 153 197 6 25 14 56 18 70 4 14 10 372 14
795 6 728 8 774 27 845 78 292 253 490 491 556 34 9 62 20 62 24 0 4 -27 14
-61 24 -245 68 -423 275 -496 575 -14 56 -17 180 -23 846 -6 748 -7 783 -27
848 -33 109 -85 170 -176 204 -32 12 -94 17 -264 21 l-223 4 0 189 0 189 263
0 c228 0 273 -3 346 -20z"/>
</g>
</svg>
